<svg width="37" height="37" viewBox="0 0 37 37" fill="none" xmlns="http://www.w3.org/2000/svg">
<path d="M8.28709 5.95833H34.625L31.0417 18.5H10.2166M32.8333 25.6667H11.3333L7.75 2.375H2.375M13.125 32.8333C13.125 33.8229 12.3228 34.625 11.3333 34.625C10.3438 34.625 9.54167 33.8229 9.54167 32.8333C9.54167 31.8438 10.3438 31.0417 11.3333 31.0417C12.3228 31.0417 13.125 31.8438 13.125 32.8333ZM32.8333 32.8333C32.8333 33.8229 32.0312 34.625 31.0417 34.625C30.0521 34.625 29.25 33.8229 29.25 32.8333C29.25 31.8438 30.0521 31.0417 31.0417 31.0417C32.0312 31.0417 32.8333 31.8438 32.8333 32.8333Z" stroke="#8F653D" stroke-width="4" stroke-linecap="round" stroke-linejoin="round"/>
</svg>
